# xmcd
#
# Track frame offsets:
# 150
# 1411
# 2884
# 101286
# 201086
#
# Disc length: 4129 seconds
#
#
# Revision: 0
# Processed by: cddbd v1.5.2PL0 Copyright (c) Steve Scherf et al.
# Submitted via: FreeRIP 2.95 
#
DISCID=30101f05
DTITLE=a - omar
DYEAR=2006
DGENRE=A Cappella
TTITLE0=ffffffffff
TTITLE1=f
TTITLE2=ff
TTITLE3=ffff
TTITLE4=ff
EXTD=aassss
EXTT0=
EXTT1=
EXTT2=14
EXTT3=15
EXTT4=16
PLAYORDER=
